<svg version="1.1" viewBox="0.0 0.0 128.0 128.0" fill="none" stroke="none" stroke-linecap="square" stroke-miterlimit="10" xmlns:xlink="http://www.w3.org/1999/xlink" xmlns="http://www.w3.org/2000/svg"><clipPath id="p.0"><path d="m0 0l128.0 0l0 128.0l-128.0 0l0 -128.0z" clip-rule="nonzero"/></clipPath><g clip-path="url(#p.0)"><path fill="#000000" fill-opacity="0.0" d="m0 0l128.0 0l0 128.0l-128.0 0z" fill-rule="evenodd"/><path fill="#1c1c1c" d="m18.723055 109.35893l5.7139797 -18.453049l0 0c-15.617465 -18.088737 -13.195742 -43.747604 5.594778 -59.278328c18.790522 -15.530724 47.800293 -15.850586 67.01974 -0.73895836c19.219452 15.111626 22.35865 40.709183 7.2523346 59.136673c-15.106316 18.427498 -43.514328 23.65419 -65.62953 12.074959z" fill-rule="evenodd"/><path fill="#ffffff" d="m22.125984 54.125984l0 0c0 -5.45327 4.4207478 -9.874016 9.874016 -9.874016l64.0 0c2.6187515 0 5.130249 1.0402946 6.981987 2.8920326c1.8517303 1.851738 2.8920288 4.3632317 2.8920288 6.981983l0 0l0 0c0 5.45327 -4.420746 9.874016 -9.874016 9.874016l-64.0 0c-5.453268 0 -9.874016 -4.420746 -9.874016 -9.874016z" fill-rule="evenodd"/><path fill="#1c1c1c" d="m40.63517 54.125984l0 0c0 -2.8440475 2.594635 -5.149605 5.7952766 -5.149605l0 0c3.2006416 0 5.7952766 2.3055573 5.7952766 5.149605l0 0c0 2.8440475 -2.594635 5.149605 -5.7952766 5.149605l0 0c-3.2006416 0 -5.7952766 -2.3055573 -5.7952766 -5.149605z" fill-rule="evenodd"/><path fill="#1c1c1c" d="m77.03937 54.125984l0 0c0 -2.8440475 2.594635 -5.149605 5.7952805 -5.149605l0 0c3.2006378 0 5.795273 2.3055573 5.795273 5.149605l0 0c0 2.8440475 -2.594635 5.149605 -5.795273 5.149605l0 0c-3.2006454 0 -5.7952805 -2.3055573 -5.7952805 -5.149605z" fill-rule="evenodd"/></g></svg>